<mxfile host="app.diagrams.net" agent="Mozilla/5.0 (Windows NT 10.0; Win64; x64) AppleWebKit/537.36 (KHTML, like Gecko) Chrome/128.0.0.0 Safari/537.36" version="24.7.16">
  <diagram name="Сторінка-1" id="0Pz7Ob6YXoPbe005RDs7">
    <mxGraphModel dx="3686" dy="1614" grid="1" gridSize="10" guides="1" tooltips="1" connect="1" arrows="1" fold="1" page="1" pageScale="1" pageWidth="827" pageHeight="1169" math="0" shadow="0">
      <root>
        <mxCell id="0" />
        <mxCell id="1" parent="0" />
        <mxCell id="HCUcy7XUK_Hv5iFKnbys-1" value="person_ID" style="ellipse;whiteSpace=wrap;html=1;align=center;" parent="1" vertex="1">
          <mxGeometry x="930" y="1292.5" width="100" height="40" as="geometry" />
        </mxCell>
        <mxCell id="HCUcy7XUK_Hv5iFKnbys-2" value="first_name" style="ellipse;whiteSpace=wrap;html=1;align=center;" parent="1" vertex="1">
          <mxGeometry x="880" y="1332.5" width="100" height="40" as="geometry" />
        </mxCell>
        <mxCell id="HCUcy7XUK_Hv5iFKnbys-3" value="last_name&amp;nbsp;" style="ellipse;whiteSpace=wrap;html=1;align=center;" parent="1" vertex="1">
          <mxGeometry x="850" y="1397.5" width="100" height="40" as="geometry" />
        </mxCell>
        <mxCell id="HCUcy7XUK_Hv5iFKnbys-4" value="email" style="ellipse;whiteSpace=wrap;html=1;align=center;" parent="1" vertex="1">
          <mxGeometry x="850" y="1457.5" width="100" height="40" as="geometry" />
        </mxCell>
        <mxCell id="HCUcy7XUK_Hv5iFKnbys-5" value="phone_number" style="ellipse;whiteSpace=wrap;html=1;align=center;" parent="1" vertex="1">
          <mxGeometry x="880" y="1517.5" width="100" height="40" as="geometry" />
        </mxCell>
        <mxCell id="HCUcy7XUK_Hv5iFKnbys-6" value="Person" style="whiteSpace=wrap;html=1;align=center;strokeColor=#FF0000;" parent="1" vertex="1">
          <mxGeometry x="1000" y="1397.5" width="100" height="40" as="geometry" />
        </mxCell>
        <mxCell id="HCUcy7XUK_Hv5iFKnbys-7" value="address" style="ellipse;whiteSpace=wrap;html=1;align=center;" parent="1" vertex="1">
          <mxGeometry x="940" y="1572.5" width="100" height="40" as="geometry" />
        </mxCell>
        <mxCell id="HCUcy7XUK_Hv5iFKnbys-8" value="Employee" style="whiteSpace=wrap;html=1;align=center;strokeColor=#FF0000;" parent="1" vertex="1">
          <mxGeometry x="1925" y="1397.5" width="100" height="40" as="geometry" />
        </mxCell>
        <mxCell id="HCUcy7XUK_Hv5iFKnbys-9" value="employee_ID" style="ellipse;whiteSpace=wrap;html=1;align=center;" parent="1" vertex="1">
          <mxGeometry x="2120" y="1602.5" width="100" height="40" as="geometry" />
        </mxCell>
        <mxCell id="HCUcy7XUK_Hv5iFKnbys-10" value="person_ID" style="ellipse;whiteSpace=wrap;html=1;align=center;" parent="1" vertex="1">
          <mxGeometry x="2074" y="1652.5" width="100" height="40" as="geometry" />
        </mxCell>
        <mxCell id="HCUcy7XUK_Hv5iFKnbys-11" value="position&amp;nbsp;" style="ellipse;whiteSpace=wrap;html=1;align=center;" parent="1" vertex="1">
          <mxGeometry x="2009" y="1692.5" width="100" height="40" as="geometry" />
        </mxCell>
        <mxCell id="HCUcy7XUK_Hv5iFKnbys-12" value="hire_date&amp;nbsp;" style="ellipse;whiteSpace=wrap;html=1;align=center;" parent="1" vertex="1">
          <mxGeometry x="1930" y="1742.5" width="100" height="40" as="geometry" />
        </mxCell>
        <mxCell id="HCUcy7XUK_Hv5iFKnbys-13" value="salary" style="ellipse;whiteSpace=wrap;html=1;align=center;" parent="1" vertex="1">
          <mxGeometry x="1844" y="1712.5" width="100" height="40" as="geometry" />
        </mxCell>
        <mxCell id="HCUcy7XUK_Hv5iFKnbys-14" value="department_ID" style="ellipse;whiteSpace=wrap;html=1;align=center;" parent="1" vertex="1">
          <mxGeometry x="1774" y="1672.5" width="100" height="40" as="geometry" />
        </mxCell>
        <mxCell id="HCUcy7XUK_Hv5iFKnbys-15" value="team_ID" style="ellipse;whiteSpace=wrap;html=1;align=center;" parent="1" vertex="1">
          <mxGeometry x="1734" y="1617.5" width="100" height="40" as="geometry" />
        </mxCell>
        <mxCell id="HCUcy7XUK_Hv5iFKnbys-16" value="Department&amp;nbsp;" style="whiteSpace=wrap;html=1;align=center;strokeColor=#FF0000;" parent="1" vertex="1">
          <mxGeometry x="2575" y="1397.5" width="100" height="40" as="geometry" />
        </mxCell>
        <mxCell id="HCUcy7XUK_Hv5iFKnbys-17" value="department_ID" style="ellipse;whiteSpace=wrap;html=1;align=center;" parent="1" vertex="1">
          <mxGeometry x="2760" y="1242.5" width="100" height="40" as="geometry" />
        </mxCell>
        <mxCell id="HCUcy7XUK_Hv5iFKnbys-18" value="department_name" style="ellipse;whiteSpace=wrap;html=1;align=center;" parent="1" vertex="1">
          <mxGeometry x="2800" y="1292.5" width="100" height="40" as="geometry" />
        </mxCell>
        <mxCell id="HCUcy7XUK_Hv5iFKnbys-19" value="manager_ID" style="ellipse;whiteSpace=wrap;html=1;align=center;" parent="1" vertex="1">
          <mxGeometry x="2795" y="1457.5" width="100" height="40" as="geometry" />
        </mxCell>
        <mxCell id="HCUcy7XUK_Hv5iFKnbys-20" value="Team&amp;nbsp;" style="whiteSpace=wrap;html=1;align=center;strokeColor=#FF0000;" parent="1" vertex="1">
          <mxGeometry x="1932" y="1006.5" width="100" height="40" as="geometry" />
        </mxCell>
        <mxCell id="HCUcy7XUK_Hv5iFKnbys-21" value="team_ID" style="ellipse;whiteSpace=wrap;html=1;align=center;" parent="1" vertex="1">
          <mxGeometry x="2180" y="912.5" width="100" height="40" as="geometry" />
        </mxCell>
        <mxCell id="HCUcy7XUK_Hv5iFKnbys-22" value="team_name&amp;nbsp;" style="ellipse;whiteSpace=wrap;html=1;align=center;" parent="1" vertex="1">
          <mxGeometry x="2136" y="862.5" width="100" height="40" as="geometry" />
        </mxCell>
        <mxCell id="HCUcy7XUK_Hv5iFKnbys-23" value="manager_ID" style="ellipse;whiteSpace=wrap;html=1;align=center;" parent="1" vertex="1">
          <mxGeometry x="2050" y="852.5" width="100" height="40" as="geometry" />
        </mxCell>
        <mxCell id="HCUcy7XUK_Hv5iFKnbys-24" value="project_ID" style="ellipse;whiteSpace=wrap;html=1;align=center;" parent="1" vertex="1">
          <mxGeometry x="1950" y="872.5" width="100" height="40" as="geometry" />
        </mxCell>
        <mxCell id="HCUcy7XUK_Hv5iFKnbys-25" value="Product" style="whiteSpace=wrap;html=1;align=center;strokeColor=#FF0000;" parent="1" vertex="1">
          <mxGeometry x="1457" y="600" width="100" height="40" as="geometry" />
        </mxCell>
        <mxCell id="HCUcy7XUK_Hv5iFKnbys-26" value="product_ID" style="ellipse;whiteSpace=wrap;html=1;align=center;" parent="1" vertex="1">
          <mxGeometry x="1447" y="475" width="100" height="40" as="geometry" />
        </mxCell>
        <mxCell id="HCUcy7XUK_Hv5iFKnbys-27" value="product_name&amp;nbsp;" style="ellipse;whiteSpace=wrap;html=1;align=center;" parent="1" vertex="1">
          <mxGeometry x="1607" y="536" width="100" height="40" as="geometry" />
        </mxCell>
        <mxCell id="HCUcy7XUK_Hv5iFKnbys-28" value="release_date" style="ellipse;whiteSpace=wrap;html=1;align=center;" parent="1" vertex="1">
          <mxGeometry x="1627" y="595" width="100" height="40" as="geometry" />
        </mxCell>
        <mxCell id="HCUcy7XUK_Hv5iFKnbys-29" value="version" style="ellipse;whiteSpace=wrap;html=1;align=center;" parent="1" vertex="1">
          <mxGeometry x="1617" y="655" width="100" height="40" as="geometry" />
        </mxCell>
        <mxCell id="HCUcy7XUK_Hv5iFKnbys-30" value="client_ID" style="ellipse;whiteSpace=wrap;html=1;align=center;" parent="1" vertex="1">
          <mxGeometry x="1537" y="705" width="100" height="40" as="geometry" />
        </mxCell>
        <mxCell id="HCUcy7XUK_Hv5iFKnbys-31" value="Project" style="whiteSpace=wrap;html=1;align=center;strokeColor=#FF0000;" parent="1" vertex="1">
          <mxGeometry x="1457" y="1006.5" width="100" height="40" as="geometry" />
        </mxCell>
        <mxCell id="HCUcy7XUK_Hv5iFKnbys-32" value="project_ID" style="ellipse;whiteSpace=wrap;html=1;align=center;" parent="1" vertex="1">
          <mxGeometry x="1336" y="886.5" width="100" height="40" as="geometry" />
        </mxCell>
        <mxCell id="HCUcy7XUK_Hv5iFKnbys-33" value="project_name" style="ellipse;whiteSpace=wrap;html=1;align=center;" parent="1" vertex="1">
          <mxGeometry x="1284" y="936.5" width="100" height="40" as="geometry" />
        </mxCell>
        <mxCell id="HCUcy7XUK_Hv5iFKnbys-34" value="start_date&amp;nbsp;" style="ellipse;whiteSpace=wrap;html=1;align=center;" parent="1" vertex="1">
          <mxGeometry x="1244" y="982.5" width="100" height="40" as="geometry" />
        </mxCell>
        <mxCell id="HCUcy7XUK_Hv5iFKnbys-35" value="end_date" style="ellipse;whiteSpace=wrap;html=1;align=center;" parent="1" vertex="1">
          <mxGeometry x="1220" y="1036.5" width="100" height="40" as="geometry" />
        </mxCell>
        <mxCell id="HCUcy7XUK_Hv5iFKnbys-36" value="status" style="ellipse;whiteSpace=wrap;html=1;align=center;" parent="1" vertex="1">
          <mxGeometry x="1244" y="1086.5" width="100" height="40" as="geometry" />
        </mxCell>
        <mxCell id="HCUcy7XUK_Hv5iFKnbys-37" value="budget" style="ellipse;whiteSpace=wrap;html=1;align=center;" parent="1" vertex="1">
          <mxGeometry x="1284" y="1137.5" width="100" height="40" as="geometry" />
        </mxCell>
        <mxCell id="HCUcy7XUK_Hv5iFKnbys-38" value="product_ID" style="ellipse;whiteSpace=wrap;html=1;align=center;" parent="1" vertex="1">
          <mxGeometry x="1336" y="1192.5" width="100" height="40" as="geometry" />
        </mxCell>
        <mxCell id="HCUcy7XUK_Hv5iFKnbys-39" value="Client&amp;nbsp;" style="whiteSpace=wrap;html=1;align=center;strokeColor=#FF0000;" parent="1" vertex="1">
          <mxGeometry x="1000" y="600" width="100" height="40" as="geometry" />
        </mxCell>
        <mxCell id="HCUcy7XUK_Hv5iFKnbys-40" value="client_ID" style="ellipse;whiteSpace=wrap;html=1;align=center;" parent="1" vertex="1">
          <mxGeometry x="840" y="510" width="100" height="40" as="geometry" />
        </mxCell>
        <mxCell id="HCUcy7XUK_Hv5iFKnbys-41" value="" style="endArrow=none;html=1;rounded=0;" parent="1" source="HCUcy7XUK_Hv5iFKnbys-1" target="HCUcy7XUK_Hv5iFKnbys-6" edge="1">
          <mxGeometry relative="1" as="geometry">
            <mxPoint x="1370" y="1372.5" as="sourcePoint" />
            <mxPoint x="1530" y="1372.5" as="targetPoint" />
          </mxGeometry>
        </mxCell>
        <mxCell id="HCUcy7XUK_Hv5iFKnbys-42" value="" style="endArrow=none;html=1;rounded=0;" parent="1" source="HCUcy7XUK_Hv5iFKnbys-2" target="HCUcy7XUK_Hv5iFKnbys-6" edge="1">
          <mxGeometry relative="1" as="geometry">
            <mxPoint x="1240" y="1452.5" as="sourcePoint" />
            <mxPoint x="1400" y="1452.5" as="targetPoint" />
          </mxGeometry>
        </mxCell>
        <mxCell id="HCUcy7XUK_Hv5iFKnbys-43" value="" style="endArrow=none;html=1;rounded=0;" parent="1" source="HCUcy7XUK_Hv5iFKnbys-3" target="HCUcy7XUK_Hv5iFKnbys-6" edge="1">
          <mxGeometry relative="1" as="geometry">
            <mxPoint x="1240" y="1452.5" as="sourcePoint" />
            <mxPoint x="1400" y="1452.5" as="targetPoint" />
          </mxGeometry>
        </mxCell>
        <mxCell id="HCUcy7XUK_Hv5iFKnbys-44" value="" style="endArrow=none;html=1;rounded=0;" parent="1" source="HCUcy7XUK_Hv5iFKnbys-4" target="HCUcy7XUK_Hv5iFKnbys-6" edge="1">
          <mxGeometry relative="1" as="geometry">
            <mxPoint x="1240" y="1452.5" as="sourcePoint" />
            <mxPoint x="1400" y="1452.5" as="targetPoint" />
          </mxGeometry>
        </mxCell>
        <mxCell id="HCUcy7XUK_Hv5iFKnbys-45" value="" style="endArrow=none;html=1;rounded=0;" parent="1" source="HCUcy7XUK_Hv5iFKnbys-5" target="HCUcy7XUK_Hv5iFKnbys-6" edge="1">
          <mxGeometry relative="1" as="geometry">
            <mxPoint x="1240" y="1452.5" as="sourcePoint" />
            <mxPoint x="1400" y="1452.5" as="targetPoint" />
          </mxGeometry>
        </mxCell>
        <mxCell id="HCUcy7XUK_Hv5iFKnbys-46" value="" style="endArrow=none;html=1;rounded=0;" parent="1" source="HCUcy7XUK_Hv5iFKnbys-7" target="HCUcy7XUK_Hv5iFKnbys-6" edge="1">
          <mxGeometry relative="1" as="geometry">
            <mxPoint x="1240" y="1452.5" as="sourcePoint" />
            <mxPoint x="1400" y="1452.5" as="targetPoint" />
          </mxGeometry>
        </mxCell>
        <mxCell id="HCUcy7XUK_Hv5iFKnbys-47" value="" style="endArrow=none;html=1;rounded=0;" parent="1" source="HCUcy7XUK_Hv5iFKnbys-21" target="HCUcy7XUK_Hv5iFKnbys-20" edge="1">
          <mxGeometry relative="1" as="geometry">
            <mxPoint x="2282" y="1146.5" as="sourcePoint" />
            <mxPoint x="2442" y="1146.5" as="targetPoint" />
          </mxGeometry>
        </mxCell>
        <mxCell id="HCUcy7XUK_Hv5iFKnbys-48" value="" style="endArrow=none;html=1;rounded=0;" parent="1" source="HCUcy7XUK_Hv5iFKnbys-22" target="HCUcy7XUK_Hv5iFKnbys-20" edge="1">
          <mxGeometry relative="1" as="geometry">
            <mxPoint x="2282" y="1146.5" as="sourcePoint" />
            <mxPoint x="2442" y="1146.5" as="targetPoint" />
          </mxGeometry>
        </mxCell>
        <mxCell id="HCUcy7XUK_Hv5iFKnbys-49" value="" style="endArrow=none;html=1;rounded=0;" parent="1" source="HCUcy7XUK_Hv5iFKnbys-23" target="HCUcy7XUK_Hv5iFKnbys-20" edge="1">
          <mxGeometry relative="1" as="geometry">
            <mxPoint x="2282" y="1146.5" as="sourcePoint" />
            <mxPoint x="2442" y="1146.5" as="targetPoint" />
          </mxGeometry>
        </mxCell>
        <mxCell id="HCUcy7XUK_Hv5iFKnbys-50" value="" style="endArrow=none;html=1;rounded=0;" parent="1" source="HCUcy7XUK_Hv5iFKnbys-24" target="HCUcy7XUK_Hv5iFKnbys-20" edge="1">
          <mxGeometry relative="1" as="geometry">
            <mxPoint x="2282" y="1146.5" as="sourcePoint" />
            <mxPoint x="2442" y="1146.5" as="targetPoint" />
          </mxGeometry>
        </mxCell>
        <mxCell id="HCUcy7XUK_Hv5iFKnbys-51" value="" style="endArrow=none;html=1;rounded=0;" parent="1" source="HCUcy7XUK_Hv5iFKnbys-32" target="HCUcy7XUK_Hv5iFKnbys-31" edge="1">
          <mxGeometry relative="1" as="geometry">
            <mxPoint x="1339.409326480195" y="947.2485054402105" as="sourcePoint" />
            <mxPoint x="1902" y="1136.5" as="targetPoint" />
          </mxGeometry>
        </mxCell>
        <mxCell id="HCUcy7XUK_Hv5iFKnbys-52" value="" style="endArrow=none;html=1;rounded=0;" parent="1" source="HCUcy7XUK_Hv5iFKnbys-33" target="HCUcy7XUK_Hv5iFKnbys-31" edge="1">
          <mxGeometry relative="1" as="geometry">
            <mxPoint x="1742" y="1136.5" as="sourcePoint" />
            <mxPoint x="1902" y="1136.5" as="targetPoint" />
          </mxGeometry>
        </mxCell>
        <mxCell id="HCUcy7XUK_Hv5iFKnbys-53" value="" style="endArrow=none;html=1;rounded=0;" parent="1" source="HCUcy7XUK_Hv5iFKnbys-34" target="HCUcy7XUK_Hv5iFKnbys-31" edge="1">
          <mxGeometry relative="1" as="geometry">
            <mxPoint x="1742" y="1136.5" as="sourcePoint" />
            <mxPoint x="1902" y="1136.5" as="targetPoint" />
          </mxGeometry>
        </mxCell>
        <mxCell id="HCUcy7XUK_Hv5iFKnbys-54" value="" style="endArrow=none;html=1;rounded=0;" parent="1" source="HCUcy7XUK_Hv5iFKnbys-35" target="HCUcy7XUK_Hv5iFKnbys-31" edge="1">
          <mxGeometry relative="1" as="geometry">
            <mxPoint x="1742" y="1136.5" as="sourcePoint" />
            <mxPoint x="1902" y="1136.5" as="targetPoint" />
          </mxGeometry>
        </mxCell>
        <mxCell id="HCUcy7XUK_Hv5iFKnbys-55" value="" style="endArrow=none;html=1;rounded=0;" parent="1" source="HCUcy7XUK_Hv5iFKnbys-36" target="HCUcy7XUK_Hv5iFKnbys-31" edge="1">
          <mxGeometry relative="1" as="geometry">
            <mxPoint x="1742" y="1136.5" as="sourcePoint" />
            <mxPoint x="1902" y="1136.5" as="targetPoint" />
          </mxGeometry>
        </mxCell>
        <mxCell id="HCUcy7XUK_Hv5iFKnbys-56" value="" style="endArrow=none;html=1;rounded=0;" parent="1" source="HCUcy7XUK_Hv5iFKnbys-37" target="HCUcy7XUK_Hv5iFKnbys-31" edge="1">
          <mxGeometry relative="1" as="geometry">
            <mxPoint x="1742" y="1136.5" as="sourcePoint" />
            <mxPoint x="1902" y="1136.5" as="targetPoint" />
          </mxGeometry>
        </mxCell>
        <mxCell id="HCUcy7XUK_Hv5iFKnbys-57" value="" style="endArrow=none;html=1;rounded=0;" parent="1" source="HCUcy7XUK_Hv5iFKnbys-38" target="HCUcy7XUK_Hv5iFKnbys-31" edge="1">
          <mxGeometry relative="1" as="geometry">
            <mxPoint x="1412" y="1178.5" as="sourcePoint" />
            <mxPoint x="1902" y="1136.5" as="targetPoint" />
          </mxGeometry>
        </mxCell>
        <mxCell id="HCUcy7XUK_Hv5iFKnbys-58" value="" style="endArrow=none;html=1;rounded=0;" parent="1" source="HCUcy7XUK_Hv5iFKnbys-9" target="HCUcy7XUK_Hv5iFKnbys-8" edge="1">
          <mxGeometry relative="1" as="geometry">
            <mxPoint x="1705" y="1537.5" as="sourcePoint" />
            <mxPoint x="1865" y="1537.5" as="targetPoint" />
          </mxGeometry>
        </mxCell>
        <mxCell id="HCUcy7XUK_Hv5iFKnbys-59" value="" style="endArrow=none;html=1;rounded=0;" parent="1" source="HCUcy7XUK_Hv5iFKnbys-10" target="HCUcy7XUK_Hv5iFKnbys-8" edge="1">
          <mxGeometry relative="1" as="geometry">
            <mxPoint x="1705" y="1537.5" as="sourcePoint" />
            <mxPoint x="1865" y="1537.5" as="targetPoint" />
          </mxGeometry>
        </mxCell>
        <mxCell id="HCUcy7XUK_Hv5iFKnbys-60" value="" style="endArrow=none;html=1;rounded=0;" parent="1" source="HCUcy7XUK_Hv5iFKnbys-11" target="HCUcy7XUK_Hv5iFKnbys-8" edge="1">
          <mxGeometry relative="1" as="geometry">
            <mxPoint x="1705" y="1537.5" as="sourcePoint" />
            <mxPoint x="1865" y="1537.5" as="targetPoint" />
          </mxGeometry>
        </mxCell>
        <mxCell id="HCUcy7XUK_Hv5iFKnbys-61" value="" style="endArrow=none;html=1;rounded=0;" parent="1" source="HCUcy7XUK_Hv5iFKnbys-12" target="HCUcy7XUK_Hv5iFKnbys-8" edge="1">
          <mxGeometry relative="1" as="geometry">
            <mxPoint x="1705" y="1537.5" as="sourcePoint" />
            <mxPoint x="1865" y="1537.5" as="targetPoint" />
          </mxGeometry>
        </mxCell>
        <mxCell id="HCUcy7XUK_Hv5iFKnbys-62" value="" style="endArrow=none;html=1;rounded=0;" parent="1" source="HCUcy7XUK_Hv5iFKnbys-13" target="HCUcy7XUK_Hv5iFKnbys-8" edge="1">
          <mxGeometry relative="1" as="geometry">
            <mxPoint x="1705" y="1537.5" as="sourcePoint" />
            <mxPoint x="1865" y="1537.5" as="targetPoint" />
          </mxGeometry>
        </mxCell>
        <mxCell id="HCUcy7XUK_Hv5iFKnbys-63" value="" style="endArrow=none;html=1;rounded=0;" parent="1" source="HCUcy7XUK_Hv5iFKnbys-14" target="HCUcy7XUK_Hv5iFKnbys-8" edge="1">
          <mxGeometry relative="1" as="geometry">
            <mxPoint x="1705" y="1537.5" as="sourcePoint" />
            <mxPoint x="1865" y="1537.5" as="targetPoint" />
          </mxGeometry>
        </mxCell>
        <mxCell id="HCUcy7XUK_Hv5iFKnbys-64" value="" style="endArrow=none;html=1;rounded=0;" parent="1" source="HCUcy7XUK_Hv5iFKnbys-15" target="HCUcy7XUK_Hv5iFKnbys-8" edge="1">
          <mxGeometry relative="1" as="geometry">
            <mxPoint x="1705" y="1537.5" as="sourcePoint" />
            <mxPoint x="1865" y="1537.5" as="targetPoint" />
          </mxGeometry>
        </mxCell>
        <mxCell id="HCUcy7XUK_Hv5iFKnbys-65" value="" style="endArrow=none;html=1;rounded=0;" parent="1" source="HCUcy7XUK_Hv5iFKnbys-17" target="HCUcy7XUK_Hv5iFKnbys-16" edge="1">
          <mxGeometry relative="1" as="geometry">
            <mxPoint x="2805.180990702921" y="1426.6817292017056" as="sourcePoint" />
            <mxPoint x="2535" y="1628.32" as="targetPoint" />
          </mxGeometry>
        </mxCell>
        <mxCell id="HCUcy7XUK_Hv5iFKnbys-66" value="" style="endArrow=none;html=1;rounded=0;" parent="1" source="HCUcy7XUK_Hv5iFKnbys-18" target="HCUcy7XUK_Hv5iFKnbys-16" edge="1">
          <mxGeometry relative="1" as="geometry">
            <mxPoint x="2375" y="1628.32" as="sourcePoint" />
            <mxPoint x="2535" y="1628.32" as="targetPoint" />
          </mxGeometry>
        </mxCell>
        <mxCell id="HCUcy7XUK_Hv5iFKnbys-67" value="" style="endArrow=none;html=1;rounded=0;" parent="1" source="HCUcy7XUK_Hv5iFKnbys-19" target="HCUcy7XUK_Hv5iFKnbys-16" edge="1">
          <mxGeometry relative="1" as="geometry">
            <mxPoint x="2375" y="1628.32" as="sourcePoint" />
            <mxPoint x="2535" y="1628.32" as="targetPoint" />
          </mxGeometry>
        </mxCell>
        <mxCell id="HCUcy7XUK_Hv5iFKnbys-68" value="" style="endArrow=none;html=1;rounded=0;" parent="1" source="HCUcy7XUK_Hv5iFKnbys-26" target="HCUcy7XUK_Hv5iFKnbys-25" edge="1">
          <mxGeometry relative="1" as="geometry">
            <mxPoint x="1117" y="315" as="sourcePoint" />
            <mxPoint x="1277" y="315" as="targetPoint" />
          </mxGeometry>
        </mxCell>
        <mxCell id="HCUcy7XUK_Hv5iFKnbys-69" value="" style="endArrow=none;html=1;rounded=0;" parent="1" source="HCUcy7XUK_Hv5iFKnbys-98" target="HCUcy7XUK_Hv5iFKnbys-16" edge="1">
          <mxGeometry relative="1" as="geometry">
            <mxPoint x="2886" y="1518.3200000000006" as="sourcePoint" />
            <mxPoint x="2535" y="1628.32" as="targetPoint" />
          </mxGeometry>
        </mxCell>
        <mxCell id="HCUcy7XUK_Hv5iFKnbys-70" value="" style="endArrow=none;html=1;rounded=0;" parent="1" source="HCUcy7XUK_Hv5iFKnbys-27" target="HCUcy7XUK_Hv5iFKnbys-25" edge="1">
          <mxGeometry relative="1" as="geometry">
            <mxPoint x="1117" y="545" as="sourcePoint" />
            <mxPoint x="1277" y="545" as="targetPoint" />
          </mxGeometry>
        </mxCell>
        <mxCell id="HCUcy7XUK_Hv5iFKnbys-71" value="" style="endArrow=none;html=1;rounded=0;" parent="1" source="HCUcy7XUK_Hv5iFKnbys-28" target="HCUcy7XUK_Hv5iFKnbys-25" edge="1">
          <mxGeometry relative="1" as="geometry">
            <mxPoint x="1117" y="545" as="sourcePoint" />
            <mxPoint x="1277" y="545" as="targetPoint" />
          </mxGeometry>
        </mxCell>
        <mxCell id="HCUcy7XUK_Hv5iFKnbys-72" value="" style="endArrow=none;html=1;rounded=0;" parent="1" source="HCUcy7XUK_Hv5iFKnbys-29" target="HCUcy7XUK_Hv5iFKnbys-25" edge="1">
          <mxGeometry relative="1" as="geometry">
            <mxPoint x="1117" y="545" as="sourcePoint" />
            <mxPoint x="1277" y="545" as="targetPoint" />
          </mxGeometry>
        </mxCell>
        <mxCell id="HCUcy7XUK_Hv5iFKnbys-73" value="" style="endArrow=none;html=1;rounded=0;" parent="1" source="HCUcy7XUK_Hv5iFKnbys-30" target="HCUcy7XUK_Hv5iFKnbys-25" edge="1">
          <mxGeometry relative="1" as="geometry">
            <mxPoint x="1117" y="545" as="sourcePoint" />
            <mxPoint x="1277" y="545" as="targetPoint" />
          </mxGeometry>
        </mxCell>
        <mxCell id="HCUcy7XUK_Hv5iFKnbys-74" value="is" style="shape=rhombus;html=1;dashed=0;whiteSpace=wrap;perimeter=rhombusPerimeter;strokeColor=#3399FF;" parent="1" vertex="1">
          <mxGeometry x="1407" y="1387.5" width="100" height="60" as="geometry" />
        </mxCell>
        <mxCell id="HCUcy7XUK_Hv5iFKnbys-75" value="Manager" style="whiteSpace=wrap;html=1;align=center;strokeColor=#FF0000;" parent="1" vertex="1">
          <mxGeometry x="2575" y="1006.5" width="100" height="40" as="geometry" />
        </mxCell>
        <mxCell id="HCUcy7XUK_Hv5iFKnbys-78" value="person_ID" style="ellipse;whiteSpace=wrap;html=1;align=center;" parent="1" vertex="1">
          <mxGeometry x="2830" y="966.5" width="100" height="40" as="geometry" />
        </mxCell>
        <mxCell id="HCUcy7XUK_Hv5iFKnbys-79" value="manager_ID" style="ellipse;whiteSpace=wrap;html=1;align=center;" parent="1" vertex="1">
          <mxGeometry x="2781" y="922.5" width="100" height="40" as="geometry" />
        </mxCell>
        <mxCell id="HCUcy7XUK_Hv5iFKnbys-80" value="works for&amp;nbsp;" style="shape=rhombus;html=1;dashed=0;whiteSpace=wrap;perimeter=rhombusPerimeter;strokeColor=#3399FF;" parent="1" vertex="1">
          <mxGeometry x="2335" y="1387.5" width="100" height="60" as="geometry" />
        </mxCell>
        <mxCell id="HCUcy7XUK_Hv5iFKnbys-81" value="work under&amp;nbsp;" style="shape=rhombus;html=1;dashed=0;whiteSpace=wrap;perimeter=rhombusPerimeter;strokeColor=#3399FF;" parent="1" vertex="1">
          <mxGeometry x="1663" y="996.5" width="100" height="60" as="geometry" />
        </mxCell>
        <mxCell id="HCUcy7XUK_Hv5iFKnbys-82" value="project_ID" style="ellipse;whiteSpace=wrap;html=1;align=center;" parent="1" vertex="1">
          <mxGeometry x="1561" y="485" width="100" height="40" as="geometry" />
        </mxCell>
        <mxCell id="HCUcy7XUK_Hv5iFKnbys-83" value="" style="endArrow=none;html=1;rounded=0;" parent="1" source="HCUcy7XUK_Hv5iFKnbys-82" target="HCUcy7XUK_Hv5iFKnbys-25" edge="1">
          <mxGeometry relative="1" as="geometry">
            <mxPoint x="1727" y="805" as="sourcePoint" />
            <mxPoint x="1887" y="805" as="targetPoint" />
          </mxGeometry>
        </mxCell>
        <mxCell id="HCUcy7XUK_Hv5iFKnbys-84" value="person_ID" style="ellipse;whiteSpace=wrap;html=1;align=center;" parent="1" vertex="1">
          <mxGeometry x="775" y="560" width="100" height="40" as="geometry" />
        </mxCell>
        <mxCell id="HCUcy7XUK_Hv5iFKnbys-87" value="product_ID" style="ellipse;whiteSpace=wrap;html=1;align=center;" parent="1" vertex="1">
          <mxGeometry x="765" y="620" width="100" height="40" as="geometry" />
        </mxCell>
        <mxCell id="HCUcy7XUK_Hv5iFKnbys-88" value="license" style="ellipse;whiteSpace=wrap;html=1;align=center;" parent="1" vertex="1">
          <mxGeometry x="780" y="680" width="100" height="40" as="geometry" />
        </mxCell>
        <mxCell id="HCUcy7XUK_Hv5iFKnbys-89" value="license" style="ellipse;whiteSpace=wrap;html=1;align=center;" parent="1" vertex="1">
          <mxGeometry x="1372" y="525" width="100" height="40" as="geometry" />
        </mxCell>
        <mxCell id="HCUcy7XUK_Hv5iFKnbys-90" value="" style="endArrow=none;html=1;rounded=0;" parent="1" source="HCUcy7XUK_Hv5iFKnbys-89" target="HCUcy7XUK_Hv5iFKnbys-25" edge="1">
          <mxGeometry relative="1" as="geometry">
            <mxPoint x="1509" y="525" as="sourcePoint" />
            <mxPoint x="1515" y="605" as="targetPoint" />
          </mxGeometry>
        </mxCell>
        <mxCell id="HCUcy7XUK_Hv5iFKnbys-91" value="" style="endArrow=none;html=1;rounded=0;" parent="1" source="HCUcy7XUK_Hv5iFKnbys-39" target="HCUcy7XUK_Hv5iFKnbys-40" edge="1">
          <mxGeometry relative="1" as="geometry">
            <mxPoint x="770" y="660" as="sourcePoint" />
            <mxPoint x="930" y="660" as="targetPoint" />
          </mxGeometry>
        </mxCell>
        <mxCell id="HCUcy7XUK_Hv5iFKnbys-92" value="" style="endArrow=none;html=1;rounded=0;" parent="1" source="HCUcy7XUK_Hv5iFKnbys-39" target="HCUcy7XUK_Hv5iFKnbys-84" edge="1">
          <mxGeometry relative="1" as="geometry">
            <mxPoint x="730" y="602.7144418428034" as="sourcePoint" />
            <mxPoint x="560" y="670" as="targetPoint" />
          </mxGeometry>
        </mxCell>
        <mxCell id="HCUcy7XUK_Hv5iFKnbys-95" value="" style="endArrow=none;html=1;rounded=0;" parent="1" source="HCUcy7XUK_Hv5iFKnbys-87" target="HCUcy7XUK_Hv5iFKnbys-39" edge="1">
          <mxGeometry relative="1" as="geometry">
            <mxPoint x="820" y="680" as="sourcePoint" />
            <mxPoint x="980" y="680" as="targetPoint" />
          </mxGeometry>
        </mxCell>
        <mxCell id="HCUcy7XUK_Hv5iFKnbys-96" value="" style="endArrow=none;html=1;rounded=0;" parent="1" source="HCUcy7XUK_Hv5iFKnbys-88" target="HCUcy7XUK_Hv5iFKnbys-39" edge="1">
          <mxGeometry relative="1" as="geometry">
            <mxPoint x="820" y="680" as="sourcePoint" />
            <mxPoint x="980" y="680" as="targetPoint" />
          </mxGeometry>
        </mxCell>
        <mxCell id="HCUcy7XUK_Hv5iFKnbys-97" value="" style="endArrow=none;html=1;rounded=0;" parent="1" source="HCUcy7XUK_Hv5iFKnbys-79" target="HCUcy7XUK_Hv5iFKnbys-75" edge="1">
          <mxGeometry relative="1" as="geometry">
            <mxPoint x="2955" y="974" as="sourcePoint" />
            <mxPoint x="3115" y="974" as="targetPoint" />
          </mxGeometry>
        </mxCell>
        <mxCell id="HCUcy7XUK_Hv5iFKnbys-98" value="city" style="ellipse;whiteSpace=wrap;html=1;align=center;" parent="1" vertex="1">
          <mxGeometry x="2831" y="1347.5" width="100" height="40" as="geometry" />
        </mxCell>
        <mxCell id="HCUcy7XUK_Hv5iFKnbys-99" value="street" style="ellipse;whiteSpace=wrap;html=1;align=center;" parent="1" vertex="1">
          <mxGeometry x="2830" y="1397.5" width="100" height="40" as="geometry" />
        </mxCell>
        <mxCell id="HCUcy7XUK_Hv5iFKnbys-100" value="" style="endArrow=none;html=1;rounded=0;" parent="1" source="HCUcy7XUK_Hv5iFKnbys-16" target="HCUcy7XUK_Hv5iFKnbys-99" edge="1">
          <mxGeometry relative="1" as="geometry">
            <mxPoint x="2566" y="1592.5" as="sourcePoint" />
            <mxPoint x="2726" y="1592.5" as="targetPoint" />
          </mxGeometry>
        </mxCell>
        <mxCell id="HCUcy7XUK_Hv5iFKnbys-101" value="depertment_ID" style="ellipse;whiteSpace=wrap;html=1;align=center;dashed=1;" parent="1" vertex="1">
          <mxGeometry x="2831" y="1016.5" width="100" height="40" as="geometry" />
        </mxCell>
        <mxCell id="HCUcy7XUK_Hv5iFKnbys-102" value="team_ID" style="ellipse;whiteSpace=wrap;html=1;align=center;dashed=1;" parent="1" vertex="1">
          <mxGeometry x="2795" y="1076.5" width="100" height="40" as="geometry" />
        </mxCell>
        <mxCell id="HCUcy7XUK_Hv5iFKnbys-103" value="" style="endArrow=none;html=1;rounded=0;" parent="1" source="HCUcy7XUK_Hv5iFKnbys-101" target="HCUcy7XUK_Hv5iFKnbys-75" edge="1">
          <mxGeometry relative="1" as="geometry">
            <mxPoint x="2385" y="1234" as="sourcePoint" />
            <mxPoint x="2545" y="1234" as="targetPoint" />
          </mxGeometry>
        </mxCell>
        <mxCell id="HCUcy7XUK_Hv5iFKnbys-104" value="" style="endArrow=none;html=1;rounded=0;" parent="1" source="HCUcy7XUK_Hv5iFKnbys-102" target="HCUcy7XUK_Hv5iFKnbys-75" edge="1">
          <mxGeometry relative="1" as="geometry">
            <mxPoint x="2385" y="1234" as="sourcePoint" />
            <mxPoint x="2545" y="1234" as="targetPoint" />
          </mxGeometry>
        </mxCell>
        <mxCell id="HCUcy7XUK_Hv5iFKnbys-105" value="use&amp;nbsp;" style="shape=rhombus;html=1;dashed=0;whiteSpace=wrap;perimeter=rhombusPerimeter;strokeColor=#3399FF;" parent="1" vertex="1">
          <mxGeometry x="1220" y="595" width="100" height="50" as="geometry" />
        </mxCell>
        <mxCell id="HCUcy7XUK_Hv5iFKnbys-106" value="" style="edgeStyle=elbowEdgeStyle;fontSize=12;html=1;endArrow=ERoneToMany;rounded=0;strokeColor=#3399FF;" parent="1" source="HCUcy7XUK_Hv5iFKnbys-105" target="HCUcy7XUK_Hv5iFKnbys-39" edge="1">
          <mxGeometry width="100" height="100" relative="1" as="geometry">
            <mxPoint x="1171" y="570" as="sourcePoint" />
            <mxPoint x="1138" y="560" as="targetPoint" />
          </mxGeometry>
        </mxCell>
        <mxCell id="HCUcy7XUK_Hv5iFKnbys-107" value="" style="edgeStyle=elbowEdgeStyle;fontSize=12;html=1;endArrow=ERoneToMany;rounded=0;strokeColor=#3399FF;" parent="1" source="HCUcy7XUK_Hv5iFKnbys-105" target="HCUcy7XUK_Hv5iFKnbys-25" edge="1">
          <mxGeometry width="100" height="100" relative="1" as="geometry">
            <mxPoint x="1047" y="705" as="sourcePoint" />
            <mxPoint x="1147" y="605" as="targetPoint" />
          </mxGeometry>
        </mxCell>
        <mxCell id="HCUcy7XUK_Hv5iFKnbys-108" value="" style="edgeStyle=entityRelationEdgeStyle;fontSize=12;html=1;endArrow=ERmandOne;rounded=0;strokeColor=#3399FF;" parent="1" source="HCUcy7XUK_Hv5iFKnbys-81" target="HCUcy7XUK_Hv5iFKnbys-20" edge="1">
          <mxGeometry width="100" height="100" relative="1" as="geometry">
            <mxPoint x="1772" y="938.5" as="sourcePoint" />
            <mxPoint x="1872" y="838.5" as="targetPoint" />
          </mxGeometry>
        </mxCell>
        <mxCell id="HCUcy7XUK_Hv5iFKnbys-109" value="" style="edgeStyle=entityRelationEdgeStyle;fontSize=12;html=1;endArrow=ERmandOne;rounded=0;strokeColor=#3399FF;" parent="1" source="HCUcy7XUK_Hv5iFKnbys-81" target="HCUcy7XUK_Hv5iFKnbys-31" edge="1">
          <mxGeometry width="100" height="100" relative="1" as="geometry">
            <mxPoint x="1772" y="938.5" as="sourcePoint" />
            <mxPoint x="1872" y="838.5" as="targetPoint" />
          </mxGeometry>
        </mxCell>
        <mxCell id="HCUcy7XUK_Hv5iFKnbys-110" value="contain" style="shape=rhombus;html=1;dashed=0;whiteSpace=wrap;perimeter=rhombusPerimeter;strokeColor=#3399FF;" parent="1" vertex="1">
          <mxGeometry x="1457" y="780" width="100" height="50" as="geometry" />
        </mxCell>
        <mxCell id="HCUcy7XUK_Hv5iFKnbys-111" value="" style="edgeStyle=elbowEdgeStyle;fontSize=12;html=1;endArrow=ERoneToMany;rounded=0;elbow=vertical;strokeColor=#3399FF;" parent="1" source="HCUcy7XUK_Hv5iFKnbys-110" target="HCUcy7XUK_Hv5iFKnbys-25" edge="1">
          <mxGeometry width="100" height="100" relative="1" as="geometry">
            <mxPoint x="1507" y="805" as="sourcePoint" />
            <mxPoint x="1497" y="695" as="targetPoint" />
          </mxGeometry>
        </mxCell>
        <mxCell id="HCUcy7XUK_Hv5iFKnbys-112" value="" style="edgeStyle=elbowEdgeStyle;fontSize=12;html=1;endArrow=ERmandOne;rounded=0;elbow=vertical;strokeColor=#3399FF;" parent="1" source="HCUcy7XUK_Hv5iFKnbys-110" target="HCUcy7XUK_Hv5iFKnbys-31" edge="1">
          <mxGeometry width="100" height="100" relative="1" as="geometry">
            <mxPoint x="1413" y="842.5" as="sourcePoint" />
            <mxPoint x="1473" y="822.5" as="targetPoint" />
          </mxGeometry>
        </mxCell>
        <mxCell id="HCUcy7XUK_Hv5iFKnbys-113" value="" style="edgeStyle=elbowEdgeStyle;fontSize=12;html=1;endArrow=ERmandOne;rounded=0;strokeColor=#3399FF;" parent="1" source="HCUcy7XUK_Hv5iFKnbys-74" target="HCUcy7XUK_Hv5iFKnbys-8" edge="1">
          <mxGeometry width="100" height="100" relative="1" as="geometry">
            <mxPoint x="1570" y="1492.5" as="sourcePoint" />
            <mxPoint x="1695" y="1332.5" as="targetPoint" />
          </mxGeometry>
        </mxCell>
        <mxCell id="HCUcy7XUK_Hv5iFKnbys-114" value="" style="edgeStyle=elbowEdgeStyle;fontSize=12;html=1;endArrow=ERmandOne;rounded=0;strokeColor=#3399FF;" parent="1" source="HCUcy7XUK_Hv5iFKnbys-74" target="HCUcy7XUK_Hv5iFKnbys-6" edge="1">
          <mxGeometry width="100" height="100" relative="1" as="geometry">
            <mxPoint x="1350" y="1502.5" as="sourcePoint" />
            <mxPoint x="1080" y="1572.5" as="targetPoint" />
          </mxGeometry>
        </mxCell>
        <mxCell id="HCUcy7XUK_Hv5iFKnbys-115" value="" style="edgeStyle=entityRelationEdgeStyle;fontSize=12;html=1;endArrow=ERmandOne;rounded=0;strokeColor=#3399FF;" parent="1" source="HCUcy7XUK_Hv5iFKnbys-80" target="HCUcy7XUK_Hv5iFKnbys-16" edge="1">
          <mxGeometry width="100" height="100" relative="1" as="geometry">
            <mxPoint x="2135" y="1482.5" as="sourcePoint" />
            <mxPoint x="2235" y="1382.5" as="targetPoint" />
          </mxGeometry>
        </mxCell>
        <mxCell id="HCUcy7XUK_Hv5iFKnbys-116" value="" style="edgeStyle=entityRelationEdgeStyle;fontSize=12;html=1;endArrow=ERoneToMany;rounded=0;strokeColor=#3399FF;" parent="1" source="HCUcy7XUK_Hv5iFKnbys-80" target="HCUcy7XUK_Hv5iFKnbys-8" edge="1">
          <mxGeometry width="100" height="100" relative="1" as="geometry">
            <mxPoint x="2135" y="1482.5" as="sourcePoint" />
            <mxPoint x="2235" y="1382.5" as="targetPoint" />
          </mxGeometry>
        </mxCell>
        <mxCell id="HCUcy7XUK_Hv5iFKnbys-117" value="work in" style="shape=rhombus;html=1;dashed=0;whiteSpace=wrap;perimeter=rhombusPerimeter;strokeColor=#3399FF;" parent="1" vertex="1">
          <mxGeometry x="1932" y="1192.5" width="100" height="60" as="geometry" />
        </mxCell>
        <mxCell id="HCUcy7XUK_Hv5iFKnbys-118" value="" style="edgeStyle=elbowEdgeStyle;fontSize=12;html=1;endArrow=ERmany;rounded=0;strokeColor=#3399FF;" parent="1" source="HCUcy7XUK_Hv5iFKnbys-117" target="HCUcy7XUK_Hv5iFKnbys-8" edge="1">
          <mxGeometry width="100" height="100" relative="1" as="geometry">
            <mxPoint x="2330" y="1312.5" as="sourcePoint" />
            <mxPoint x="2430" y="1212.5" as="targetPoint" />
          </mxGeometry>
        </mxCell>
        <mxCell id="HCUcy7XUK_Hv5iFKnbys-119" value="" style="edgeStyle=elbowEdgeStyle;fontSize=12;html=1;endArrow=ERmany;rounded=0;elbow=vertical;strokeColor=#3399FF;" parent="1" source="HCUcy7XUK_Hv5iFKnbys-117" target="HCUcy7XUK_Hv5iFKnbys-20" edge="1">
          <mxGeometry width="100" height="100" relative="1" as="geometry">
            <mxPoint x="2336" y="1402.5" as="sourcePoint" />
            <mxPoint x="2436" y="1302.5" as="targetPoint" />
          </mxGeometry>
        </mxCell>
        <mxCell id="HCUcy7XUK_Hv5iFKnbys-120" value="" style="endArrow=none;html=1;rounded=0;" parent="1" source="HCUcy7XUK_Hv5iFKnbys-75" target="HCUcy7XUK_Hv5iFKnbys-78" edge="1">
          <mxGeometry relative="1" as="geometry">
            <mxPoint x="2480" y="1200" as="sourcePoint" />
            <mxPoint x="2640" y="1200" as="targetPoint" />
          </mxGeometry>
        </mxCell>
        <mxCell id="HCUcy7XUK_Hv5iFKnbys-122" value="manage" style="shape=rhombus;html=1;dashed=0;whiteSpace=wrap;perimeter=rhombusPerimeter;strokeColor=#3399FF;" parent="1" vertex="1">
          <mxGeometry x="2306" y="996.5" width="100" height="60" as="geometry" />
        </mxCell>
        <mxCell id="rn_LPI0YVT4q0f3YvjJN-1" value="" style="edgeStyle=elbowEdgeStyle;fontSize=12;html=1;endArrow=ERzeroToMany;endFill=1;rounded=0;strokeColor=#3399FF;" edge="1" parent="1" source="HCUcy7XUK_Hv5iFKnbys-122" target="HCUcy7XUK_Hv5iFKnbys-20">
          <mxGeometry width="100" height="100" relative="1" as="geometry">
            <mxPoint x="2146" y="1102.5" as="sourcePoint" />
            <mxPoint x="2066" y="1032.5" as="targetPoint" />
          </mxGeometry>
        </mxCell>
        <mxCell id="rn_LPI0YVT4q0f3YvjJN-2" value="" style="edgeStyle=elbowEdgeStyle;fontSize=12;html=1;endArrow=ERzeroToOne;endFill=1;rounded=0;strokeColor=#3399FF;" edge="1" parent="1" source="HCUcy7XUK_Hv5iFKnbys-122" target="HCUcy7XUK_Hv5iFKnbys-75">
          <mxGeometry width="100" height="100" relative="1" as="geometry">
            <mxPoint x="2100" y="1240" as="sourcePoint" />
            <mxPoint x="2200" y="1140" as="targetPoint" />
          </mxGeometry>
        </mxCell>
        <mxCell id="rn_LPI0YVT4q0f3YvjJN-3" value="manage" style="shape=rhombus;html=1;dashed=0;whiteSpace=wrap;perimeter=rhombusPerimeter;strokeColor=#3399FF;" vertex="1" parent="1">
          <mxGeometry x="2575" y="1182.5" width="100" height="60" as="geometry" />
        </mxCell>
        <mxCell id="rn_LPI0YVT4q0f3YvjJN-4" value="" style="edgeStyle=elbowEdgeStyle;fontSize=12;html=1;endArrow=ERzeroToMany;endFill=1;rounded=0;elbow=vertical;strokeColor=#3399FF;" edge="1" parent="1" source="rn_LPI0YVT4q0f3YvjJN-3" target="HCUcy7XUK_Hv5iFKnbys-16">
          <mxGeometry width="100" height="100" relative="1" as="geometry">
            <mxPoint x="2625" y="1292.5" as="sourcePoint" />
            <mxPoint x="2620" y="1442.5" as="targetPoint" />
          </mxGeometry>
        </mxCell>
        <mxCell id="rn_LPI0YVT4q0f3YvjJN-5" value="" style="edgeStyle=elbowEdgeStyle;fontSize=12;html=1;endArrow=ERmandOne;rounded=0;elbow=vertical;strokeColor=#3399FF;" edge="1" parent="1" source="rn_LPI0YVT4q0f3YvjJN-3" target="HCUcy7XUK_Hv5iFKnbys-75">
          <mxGeometry width="100" height="100" relative="1" as="geometry">
            <mxPoint x="2450" y="1300" as="sourcePoint" />
            <mxPoint x="2550" y="1200" as="targetPoint" />
          </mxGeometry>
        </mxCell>
        <mxCell id="rn_LPI0YVT4q0f3YvjJN-7" value="is" style="shape=rhombus;html=1;dashed=0;whiteSpace=wrap;perimeter=rhombusPerimeter;strokeColor=#3399FF;" vertex="1" parent="1">
          <mxGeometry x="1000" y="996.5" width="100" height="60" as="geometry" />
        </mxCell>
        <mxCell id="rn_LPI0YVT4q0f3YvjJN-8" value="" style="edgeStyle=elbowEdgeStyle;fontSize=12;html=1;endArrow=ERmandOne;rounded=0;elbow=vertical;strokeColor=#3399FF;" edge="1" parent="1" source="rn_LPI0YVT4q0f3YvjJN-7" target="HCUcy7XUK_Hv5iFKnbys-39">
          <mxGeometry width="100" height="100" relative="1" as="geometry">
            <mxPoint x="1430" y="1150" as="sourcePoint" />
            <mxPoint x="940" y="690" as="targetPoint" />
          </mxGeometry>
        </mxCell>
        <mxCell id="rn_LPI0YVT4q0f3YvjJN-9" value="" style="edgeStyle=elbowEdgeStyle;fontSize=12;html=1;endArrow=ERmandOne;rounded=0;elbow=vertical;strokeColor=#3399FF;" edge="1" parent="1" source="rn_LPI0YVT4q0f3YvjJN-7" target="HCUcy7XUK_Hv5iFKnbys-6">
          <mxGeometry width="100" height="100" relative="1" as="geometry">
            <mxPoint x="1430" y="1210" as="sourcePoint" />
            <mxPoint x="1530" y="1110" as="targetPoint" />
          </mxGeometry>
        </mxCell>
      </root>
    </mxGraphModel>
  </diagram>
</mxfile>
